<svg xmlns="http://www.w3.org/2000/svg" viewBox="525 8.972 160 68.707">
  <defs>
  </defs>
  <g id="logo" transform="translate(25 -29)">
    <g id="グループ化_284" data-name="グループ化 284" transform="translate(500 37.972)">
      <path id="パス_1138" data-name="パス 1138" fill="#122848" d="M140.5,0l-1.014.27c-2.908.811-28.943,7.709-55.926,7.709C58.473,7.98,32.572,1.555,27.636.27L26.689,0,11,30.228h2.84L27.974,2.975c6.83,1.691,31.513,7.506,55.587,7.506,25.224,0,48.96-5.748,55.588-7.506l14.134,27.253h2.84L140.5,0" transform="translate(-3.561)"/>
      <path id="パス_1139" data-name="パス 1139" fill="#122848" d="M192.829,65.4A4.373,4.373,0,0,0,188.5,61h-4.8V75.877h1.555V69.791h2.705l4.4,6.154h1.894l-4.531-6.357a4.3,4.3,0,0,0,3.111-4.193m-7.574,2.84V62.623H188.5a2.84,2.84,0,1,1,0,5.68h-3.246Z" transform="translate(-59.473 -19.749)"/>
      <rect id="長方形_644" data-name="長方形 644" fill="#122848" width="1.555" height="14.877" transform="translate(44.632 41.319)"/>
      <path id="パス_1140" data-name="パス 1140" fill="#122848" d="M139.013,72.461,135.7,61.1h-1.15l-3.314,11.361L127.923,61.1H126.3l4.328,14.877h1.217l3.314-11.293,3.314,11.293h1.15l4.4-14.877h-1.623l-3.381,11.361" transform="translate(-40.89 -19.781)"/>
      <path id="パス_1141" data-name="パス 1141" fill="#122848" d="M85.735,72.8,77.282,61.1H76.2V75.977h1.555V64.346l8.318,11.631H87.29V61.1H85.735V72.8" transform="translate(-24.67 -19.781)"/>
      <path id="パス_1142" data-name="パス 1142" fill="#122848" d="M100.4,75.977h8.183V74.422h-6.627V69.35H107.7V67.795h-5.748V62.655h6.627V61.1H100.4V75.977" transform="translate(-32.505 -19.781)"/>
      <path id="パス_1143" data-name="パス 1143" fill="#122848" d="M205.355,61.1H203.8V75.977h8.926V74.422h-7.371V61.1" transform="translate(-65.981 -19.781)"/>
      <path id="パス_1144" data-name="パス 1144" fill="#122848" d="M223.949,61.1H220.5V75.977h3.449a7.439,7.439,0,1,0,0-14.877m0,13.322h-1.893V62.655h1.893a5.883,5.883,0,1,1,0,11.767Z" transform="translate(-71.388 -19.781)"/>
      <path id="パス_1145" data-name="パス 1145" fill="#122848" d="M163.174,60.8a7.574,7.574,0,1,0,7.574,7.574,7.6,7.6,0,0,0-7.574-7.574m0,13.525a6.019,6.019,0,1,1,6.019-6.019A6.032,6.032,0,0,1,163.174,74.325Z" transform="translate(-50.376 -19.684)"/>
      <path id="パス_1146" data-name="パス 1146" fill="#122848" d="M6.289,63.873A5.764,5.764,0,0,1,1.42,61.1H0V75.977H1.555V63.6a7.136,7.136,0,0,0,4.734,1.826A7.136,7.136,0,0,0,11.023,63.6V75.977h1.555V61.1h-1.42a5.536,5.536,0,0,1-4.869,2.773" transform="translate(0 -19.781)"/>
      <path id="パス_1147" data-name="パス 1147" fill="#122848" d="M28.445,61.1,22.9,75.977h1.691l1.42-3.719h6.154l1.42,3.719H35.14L29.595,61.1h-1.15m-1.961,9.6,2.5-6.627,2.5,6.627Z" transform="translate(-7.414 -19.781)"/>
      <path id="パス_1148" data-name="パス 1148" fill="#122848" d="M54.429,65.4A4.373,4.373,0,0,0,50.1,61H45.3V75.877h1.555V69.791h2.7l4.4,6.154h1.893l-4.531-6.357A4.3,4.3,0,0,0,54.429,65.4m-7.642,2.84V62.623h3.246a2.84,2.84,0,1,1,0,5.68H46.788Z" transform="translate(-14.666 -19.749)"/>
      <path id="パス_1149" data-name="パス 1149" fill="#122848" d="M55.752,96.546a1.352,1.352,0,0,1-2.7,0V93.3H52.1v3.246a2.28,2.28,0,0,0,2.3,2.3,2.338,2.338,0,0,0,2.367-2.3V93.3h-.947v3.246" transform="translate(-16.868 -30.206)"/>
      <path id="パス_1150" data-name="パス 1150" fill="#122848" d="M83.467,93.3A2.338,2.338,0,0,0,81.1,95.6v3.246h.947V95.6a1.352,1.352,0,0,1,2.7,0v3.246h1.014V95.6a2.28,2.28,0,0,0-2.3-2.3" transform="translate(-26.256 -30.206)"/>
      <path id="パス_1151" data-name="パス 1151" fill="#122848" d="M104.267,93.3a2.338,2.338,0,0,0-2.367,2.3v3.246h.947V95.6a1.352,1.352,0,0,1,2.7,0v3.246h.947V95.6a2.184,2.184,0,0,0-2.232-2.3" transform="translate(-32.99 -30.206)"/>
      <path id="パス_1152" data-name="パス 1152" fill="#122848" d="M67.519,93.3a2.276,2.276,0,0,0-1.826.879,2.276,2.276,0,0,0-1.826-.879A2.338,2.338,0,0,0,61.5,95.6v3.246h.947V95.6A1.356,1.356,0,0,1,63.8,94.247a1.384,1.384,0,0,1,1.353,1.217v3.381H66.1V95.6a1.352,1.352,0,0,1,2.7,0v3.246h.947V95.6a2.224,2.224,0,0,0-2.232-2.3" transform="translate(-19.911 -30.206)"/>
      <path id="パス_1153" data-name="パス 1153" fill="#122848" d="M148.919,93.3a2.276,2.276,0,0,0-1.826.879,2.276,2.276,0,0,0-1.826-.879,2.338,2.338,0,0,0-2.367,2.3v3.246h.947V95.6a1.356,1.356,0,0,1,1.353-1.352,1.384,1.384,0,0,1,1.352,1.217v3.381h.947V95.6a1.352,1.352,0,0,1,2.7,0v3.246h.947V95.6a2.224,2.224,0,0,0-2.232-2.3" transform="translate(-46.264 -30.206)"/>
      <rect id="長方形_645" data-name="長方形 645" fill="#122848" width="0.947" height="0.947" transform="translate(106.915 60.93)"/>
      <rect id="長方形_646" data-name="長方形 646" fill="#122848" width="0.947" height="5.613" transform="translate(107.05 63.094)"/>
      <rect id="長方形_647" data-name="長方形 647" fill="#122848" width="0.947" height="0.947" transform="translate(51.868 60.93)"/>
      <rect id="長方形_648" data-name="長方形 648" fill="#122848" width="0.947" height="5.613" transform="translate(51.868 63.094)"/>
      <rect id="長方形_649" data-name="長方形 649" fill="#122848" width="0.947" height="0.947" transform="translate(123.686 60.93)"/>
      <rect id="長方形_650" data-name="長方形 650" fill="#122848" width="0.947" height="5.613" transform="translate(123.888 63.094)"/>
      <path id="パス_1154" data-name="パス 1154" fill="#122848" d="M126.452,92.264l-2.7,2.7V90.1H122.8v7.777h.947V96.321l.811-.811,1.961,2.367h1.217l-2.5-3.043,2.57-2.57h-1.352" transform="translate(-39.757 -29.17)"/>
      <path id="パス_1155" data-name="パス 1155" fill="#122848" d="M175.267,92.264a2.246,2.246,0,0,0-1.42.473V90.1H172.9v7.777h.947V94.563a1.427,1.427,0,0,1,2.84,0v3.314h.947V94.563a2.256,2.256,0,0,0-2.367-2.3" transform="translate(-55.977 -29.17)"/>
      <path id="パス_1156" data-name="パス 1156" fill="#122848" d="M93.64,93.2a2.84,2.84,0,1,0,2.84,2.84,2.857,2.857,0,0,0-2.84-2.84m0,4.734a1.893,1.893,0,1,1,1.893-1.893A1.849,1.849,0,0,1,93.64,97.934Z" transform="translate(-29.397 -30.174)"/>
      <path id="パス_1157" data-name="パス 1157" fill="#122848" d="M134.273,93.3a2.773,2.773,0,1,0,0,5.545,2.886,2.886,0,0,0,1.826-.676v.676h.947V96.073a2.742,2.742,0,0,0-2.773-2.773m0,4.666A1.826,1.826,0,1,1,136.1,96.14,1.863,1.863,0,0,1,134.273,97.966Z" transform="translate(-42.574 -30.206)"/>
      <path id="パス_1158" data-name="パス 1158" fill="#122848" d="M114.173,93.3a2.773,2.773,0,1,0,0,5.545A2.886,2.886,0,0,0,116,98.169v.676h.947V96.073a2.742,2.742,0,0,0-2.773-2.773m0,4.666A1.826,1.826,0,1,1,116,96.14,1.863,1.863,0,0,1,114.173,97.966Z" transform="translate(-36.066 -30.206)"/>
      <path id="パス_1159" data-name="パス 1159" fill="#122848" d="M165.34,94.147a1.8,1.8,0,0,1,1.488.744l.676-.676a2.837,2.837,0,1,0-2.164,4.666,2.765,2.765,0,0,0,2.164-1.014l-.676-.676a2,2,0,0,1-1.488.744,1.893,1.893,0,1,1,0-3.787" transform="translate(-52.61 -30.174)"/>
    </g>
  </g>
</svg>
